<?xml version="1.0" encoding="utf-8"?>
<!-- Generator: Adobe Illustrator 23.0.3, SVG Export Plug-In . SVG Version: 6.00 Build 0)  -->
<svg version="1.1" id="Layer_1" xmlns="http://www.w3.org/2000/svg" xmlns:xlink="http://www.w3.org/1999/xlink" x="0px" y="0px"
	 viewBox="0 0 360 360" style="enable-background:new 0 0 360 360;" xml:space="preserve">
<style type="text/css">
	.st0{fill:#C20000;}
</style>
<path class="st0" d="M247.23,139.49l-15.91,58.37h-0.23l-17.85-58.37h-14.19l-18.2,58.37h-0.23l-15.22-58.37h-15.79h-19.56H98.12
	v81.03h30.21h45.2h13.28l18.77-61.69h0.23l18.77,61.69h13.73l23.58-81.03H247.23z M123.29,207.47h-10.76v-54.93h13.16
	c4.42,0,8.49,0.52,12.19,1.55c3.7,1.03,6.9,2.63,9.61,4.81c2.71,2.17,4.82,5.02,6.35,8.53c1.53,3.51,2.29,7.71,2.29,12.59
	c0,4.96-0.86,9.18-2.58,12.65c-1.72,3.47-4.06,6.29-7.04,8.47s-6.47,3.78-10.47,4.81S127.8,207.47,123.29,207.47z"/>
</svg>
